<?xml version="1.0" encoding="utf-8"?>
<!-- Generator: Adobe Illustrator 28.0.0, SVG Export Plug-In . SVG Version: 6.00 Build 0)  -->
<svg version="1.1" id="レイヤー_1" xmlns="http://www.w3.org/2000/svg" xmlns:xlink="http://www.w3.org/1999/xlink" x="0px"
	 y="0px" viewBox="0 0 886 580" style="enable-background:new 0 0 886 580;" xml:space="preserve">
<style type="text/css">
	.st0{fill:#EAE9E9;}
</style>
<g>
	<g>
		<path class="st0" d="M290.05,3c2,0,3.88,0.78,5.29,2.18l44.8,44.53c1.97,1.95,2.69,4.82,1.9,7.47l-71.36,239.27
			c-0.87,2.91-0.33,5.96,1.47,8.38c1.8,2.42,4.64,3.86,7.6,3.86c0.93,0,1.87-0.14,2.79-0.42l28.25-8.52
			c99.91-30.13,187.35-64.59,267.36-105.38c30.35-16.77,64.81-25.64,99.65-25.64c27.73,0,54.63,5.4,79.95,16.04
			c24.46,10.28,46.42,25,65.28,43.75c18.86,18.75,33.67,40.58,44.02,64.89c10.71,25.17,16.14,51.9,16.14,79.46
			c0,27.56-5.43,54.29-16.14,79.46c-10.34,24.31-25.15,46.14-44.02,64.89c-18.86,18.75-40.83,33.47-65.28,43.75
			C732.42,571.6,705.52,577,677.79,577c-24.56,0-48.57-4.26-71.39-12.67c-22.04-8.12-42.39-19.89-60.48-34.98
			c-36.39-30.35-61.23-72.48-69.94-118.64l-0.01-0.07l-0.02-0.07c-1.33-3.83-4.94-6.41-8.99-6.41c-2.46,0-4.8,0.98-6.58,2.75
			L294.96,571.15c-1.42,1.41-3.3,2.18-5.29,2.18c-2,0-3.88-0.78-5.29-2.18l-42.61-42.35c-1.43-1.42-2.22-3.31-2.22-5.33
			c0-2.01,0.79-3.91,2.22-5.33l168.78-167.75c2.83-2.81,3.62-6.66,2.12-10.3c-1.5-3.64-4.91-5.99-8.69-5.99
			c-1.04,0-2.09,0.17-3.13,0.52L244.26,386.5l-0.49,0.16l-0.14,0.48l-49.57,16.03c-0.75,0.24-1.52,0.36-2.31,0.36
			c-2,0-3.88-0.78-5.29-2.18l-10.79-10.73c-2.04-2.03-2.74-4.99-1.82-7.72l15.81-47.07l53.17-158.25c1.01-3,0.58-6.02-1.2-8.5
			c-1.81-2.52-4.84-4.09-7.91-4.09c-2.47,0-4.76,0.97-6.61,2.81L58.14,335.76c-1.42,1.41-3.3,2.18-5.29,2.18
			c-2,0-3.88-0.78-5.29-2.18L5.22,293.68C3.79,292.26,3,290.36,3,288.35c0-2.01,0.79-3.91,2.22-5.33L284.75,5.18
			C286.17,3.78,288.05,3,290.05,3 M677.79,502.71c72.03,0,130.63-58.25,130.63-129.85s-58.6-129.85-130.63-129.85
			s-130.63,58.25-130.63,129.85S605.76,502.71,677.79,502.71 M290.05,2c-2.17,0-4.34,0.82-6,2.47L4.51,282.32
			c-3.35,3.33-3.35,8.74,0,12.07l42.34,42.08c1.66,1.65,3.83,2.47,6,2.47s4.34-0.82,6-2.47L227.8,168.53
			c1.77-1.76,3.87-2.52,5.91-2.52c5.29,0,10.22,5.13,8.16,11.27L188.7,335.52l-15.81,47.07c-1.03,3.07-0.23,6.46,2.07,8.74
			l10.79,10.73c1.62,1.61,3.79,2.47,6,2.47c0.88,0,1.76-0.14,2.62-0.41l50.07-16.19l0.14-0.48l156.59-51.88
			c0.97-0.32,1.91-0.47,2.82-0.47c7.03,0,11.51,8.97,5.86,14.58L241.06,517.43c-3.35,3.33-3.35,8.74,0,12.07l42.61,42.35
			c1.66,1.65,3.83,2.47,6,2.47c2.17,0,4.34-0.82,6-2.47l165.41-164.24c1.7-1.69,3.81-2.46,5.88-2.46c3.45,0,6.8,2.13,8.05,5.73
			C492.95,506.01,576.89,578,677.79,578c113.98,0,206.39-91.84,206.39-205.13c0-113.29-92.4-205.13-206.39-205.13
			c-36.35,0-70.48,9.37-100.14,25.76c-85.42,43.55-175.36,77.62-267.16,105.3l-28.25,8.52c-0.85,0.25-1.68,0.37-2.5,0.37
			c-5.43,0-9.8-5.31-8.11-10.95L343,57.47c0.9-3,0.07-6.26-2.15-8.47l-44.8-44.53C294.39,2.82,292.22,2,290.05,2L290.05,2z
			 M677.79,501.71c-71.48,0-129.63-57.8-129.63-128.85c0-71.05,58.15-128.85,129.63-128.85c71.48,0,129.63,57.8,129.63,128.85
			C807.43,443.91,749.27,501.71,677.79,501.71L677.79,501.71z"/>
	</g>
</g>
</svg>
