<svg width="16" height="16" viewBox="0 0 16 16" fill="none" xmlns="http://www.w3.org/2000/svg">
<path d="M13.3334 11.3334V1.33337H2.66675C2.66675 1.33337 2.66675 4.36893 2.66675 8.00004C2.66675 8.7513 2.66676 10.0677 2.66678 11.3334M13.3334 11.3334H2.66678M13.3334 11.3334V14.6667C10.3334 14.6667 7.33341 14.6667 4.33341 14.6667C3.89139 14.6667 2.66683 14.6667 2.66683 14.6667C2.66683 14.6667 2.6668 13.0465 2.66678 11.3334" stroke="white" stroke-width="1.5" stroke-linecap="square"/>
<path fill-rule="evenodd" clip-rule="evenodd" d="M2.66675 1.33337H13.3334V11.3334H2.66675V1.33337ZM8.75008 3.91671V4.66671V6.85605L9.46975 6.13638L10.0001 5.60605L11.0607 6.66671L10.5304 7.19704L8.53041 9.19704L8.00008 9.72737L7.46975 9.19704L5.46975 7.19704L4.93942 6.66671L6.00008 5.60605L6.53041 6.13638L7.25008 6.85605V4.66671V3.91671H8.75008Z" fill="white"/>
</svg>
