<svg width="522" height="62" viewBox="0 0 522 62" fill="none" xmlns="http://www.w3.org/2000/svg">
<mask id="path-1-outside-1_240_6565" maskUnits="userSpaceOnUse" x="0" y="0" width="521" height="62" fill="black">
<rect fill="white" width="521" height="62"/>
<path d="M44.8805 59.9787H33.4001L20.8143 38.7872H10.9497V59.9787H1V3.21276H25.9166C37.1419 3.21276 44.4553 10.5319 44.4553 21C44.4553 31.1277 37.8222 36.5745 31.019 37.6808L44.8805 59.9787ZM34.2505 21C34.2505 15.5532 30.1686 11.9787 24.556 11.9787H10.9497V30.0213H24.556C30.1686 30.0213 34.2505 26.4468 34.2505 21Z"/>
<path d="M49.0182 39.383C49.0182 27.4681 57.6923 17.8511 69.853 17.8511C82.1837 17.8511 90.0924 27.2979 90.0924 40.234V42.3617H58.3726C59.0529 48.5745 63.7301 53.6809 71.4687 53.6809C75.4656 53.6809 80.2278 52.0638 83.1192 49.1702L87.2011 55.0426C83.1192 58.9574 77.0814 61 70.5333 61C58.2025 61 49.0182 52.4043 49.0182 39.383ZM69.853 25.1702C62.1994 25.1702 58.7128 31.0426 58.2876 36.0638H81.4184C81.2483 31.2128 77.9317 25.1702 69.853 25.1702Z"/>
<path d="M97.0351 54.617L101.117 48.1489C104.008 51.1277 109.706 53.9362 115.064 53.9362C120.421 53.9362 123.142 51.9787 123.142 48.9149C123.142 45.3404 118.805 44.0638 113.788 42.9574C106.73 41.4255 98.3107 39.5532 98.3107 30.3617C98.3107 23.6383 104.093 17.8511 114.468 17.8511C121.442 17.8511 126.714 20.3191 130.456 23.6383L126.714 29.9362C124.248 27.1277 119.656 25 114.553 25C109.876 25 106.9 26.7021 106.9 29.5957C106.9 32.7447 110.982 33.8511 115.829 34.9574C122.972 36.4894 131.731 38.5319 131.731 48.234C131.731 55.4681 125.694 61 114.638 61C107.665 61 101.287 58.7872 97.0351 54.617Z"/>
<path d="M177.37 59.9787H168.441V54.5319C165.465 57.8511 160.363 61 153.899 61C145.055 61 140.718 56.4043 140.718 47.9787V18.8723H149.647V44.7447C149.647 51.1277 152.879 53.0851 157.896 53.0851C162.403 53.0851 166.315 50.5319 168.441 47.7234V18.8723H177.37V59.9787Z"/>
<path d="M197.898 59.9787H188.968V3.21276H197.898V59.9787Z"/>
<path d="M225.213 61C218.325 61 214.668 57.2553 214.668 50.4468V26.7021H207.865V18.8723H214.668V7.6383H223.598V18.8723H231.931V26.7021H223.598V48.234C223.598 51.0425 224.958 53.0851 227.509 53.0851C229.21 53.0851 230.826 52.4043 231.506 51.6383L233.632 58.3617C232.016 59.8936 229.38 61 225.213 61Z"/>
<path d="M278.823 59.9787H257.734V3.21276H278.823C296.512 3.21276 308.502 14.9574 308.502 31.6383C308.502 48.3191 296.512 59.9787 278.823 59.9787ZM267.683 11.9787V51.2128H278.823C291.154 51.2128 298.298 42.3617 298.298 31.6383C298.298 20.6596 291.494 11.9787 278.823 11.9787H267.683Z"/>
<path d="M326.783 59.9787H317.853V18.8723H326.783V24.9149C329.844 21 334.776 17.9362 340.134 17.9362V26.7872C339.368 26.617 338.433 26.5319 337.327 26.5319C333.586 26.5319 328.568 29.0851 326.783 31.9787V59.9787Z"/>
<path d="M353.308 12.0638C350.332 12.0638 347.781 9.59575 347.781 6.53191C347.781 3.46808 350.332 1 353.308 1C356.37 1 358.836 3.46808 358.836 6.53191C358.836 9.59575 356.37 12.0638 353.308 12.0638ZM357.815 59.9787H348.886V18.8723H357.815V59.9787Z"/>
<path d="M391.509 59.9787H381.899L365.147 18.8723H374.671L386.662 49.6809L398.652 18.8723H408.262L391.509 59.9787Z"/>
<path d="M411.317 39.383C411.317 27.4681 419.991 17.8511 432.152 17.8511C444.483 17.8511 452.391 27.2979 452.391 40.234V42.3617H420.672C421.352 48.5745 426.029 53.6809 433.768 53.6809C437.765 53.6809 442.527 52.0638 445.418 49.1702L449.5 55.0426C445.418 58.9574 439.38 61 432.832 61C420.502 61 411.317 52.4043 411.317 39.383ZM432.152 25.1702C424.498 25.1702 421.012 31.0426 420.587 36.0638H443.717C443.547 31.2128 440.231 25.1702 432.152 25.1702Z"/>
<path d="M497.857 59.9787H488.928V34.2766C488.928 27.8936 485.696 25.766 480.679 25.766C476.087 25.766 472.175 28.4894 470.134 31.2979V59.9787H461.205V18.8723H470.134V24.4894C472.855 21.2553 478.128 17.8511 484.591 17.8511C493.435 17.8511 497.857 22.617 497.857 31.0426V59.9787Z"/>
<path d="M508.094 54.9574C508.094 51.7234 510.816 49 514.047 49C517.279 49 520 51.7234 520 54.9574C520 58.1915 517.279 60.9149 514.047 60.9149C510.816 60.9149 508.094 58.1915 508.094 54.9574Z"/>
</mask>
<path d="M44.8805 59.9787H33.4001L20.8143 38.7872H10.9497V59.9787H1V3.21276H25.9166C37.1419 3.21276 44.4553 10.5319 44.4553 21C44.4553 31.1277 37.8222 36.5745 31.019 37.6808L44.8805 59.9787ZM34.2505 21C34.2505 15.5532 30.1686 11.9787 24.556 11.9787H10.9497V30.0213H24.556C30.1686 30.0213 34.2505 26.4468 34.2505 21Z" fill="#1D1917"/>
<path d="M49.0182 39.383C49.0182 27.4681 57.6923 17.8511 69.853 17.8511C82.1837 17.8511 90.0924 27.2979 90.0924 40.234V42.3617H58.3726C59.0529 48.5745 63.7301 53.6809 71.4687 53.6809C75.4656 53.6809 80.2278 52.0638 83.1192 49.1702L87.2011 55.0426C83.1192 58.9574 77.0814 61 70.5333 61C58.2025 61 49.0182 52.4043 49.0182 39.383ZM69.853 25.1702C62.1994 25.1702 58.7128 31.0426 58.2876 36.0638H81.4184C81.2483 31.2128 77.9317 25.1702 69.853 25.1702Z" fill="#1D1917"/>
<path d="M97.0351 54.617L101.117 48.1489C104.008 51.1277 109.706 53.9362 115.064 53.9362C120.421 53.9362 123.142 51.9787 123.142 48.9149C123.142 45.3404 118.805 44.0638 113.788 42.9574C106.73 41.4255 98.3107 39.5532 98.3107 30.3617C98.3107 23.6383 104.093 17.8511 114.468 17.8511C121.442 17.8511 126.714 20.3191 130.456 23.6383L126.714 29.9362C124.248 27.1277 119.656 25 114.553 25C109.876 25 106.9 26.7021 106.9 29.5957C106.9 32.7447 110.982 33.8511 115.829 34.9574C122.972 36.4894 131.731 38.5319 131.731 48.234C131.731 55.4681 125.694 61 114.638 61C107.665 61 101.287 58.7872 97.0351 54.617Z" fill="#1D1917"/>
<path d="M177.37 59.9787H168.441V54.5319C165.465 57.8511 160.363 61 153.899 61C145.055 61 140.718 56.4043 140.718 47.9787V18.8723H149.647V44.7447C149.647 51.1277 152.879 53.0851 157.896 53.0851C162.403 53.0851 166.315 50.5319 168.441 47.7234V18.8723H177.37V59.9787Z" fill="#1D1917"/>
<path d="M197.898 59.9787H188.968V3.21276H197.898V59.9787Z" fill="#1D1917"/>
<path d="M225.213 61C218.325 61 214.668 57.2553 214.668 50.4468V26.7021H207.865V18.8723H214.668V7.6383H223.598V18.8723H231.931V26.7021H223.598V48.234C223.598 51.0425 224.958 53.0851 227.509 53.0851C229.21 53.0851 230.826 52.4043 231.506 51.6383L233.632 58.3617C232.016 59.8936 229.38 61 225.213 61Z" fill="#1D1917"/>
<path d="M278.823 59.9787H257.734V3.21276H278.823C296.512 3.21276 308.502 14.9574 308.502 31.6383C308.502 48.3191 296.512 59.9787 278.823 59.9787ZM267.683 11.9787V51.2128H278.823C291.154 51.2128 298.298 42.3617 298.298 31.6383C298.298 20.6596 291.494 11.9787 278.823 11.9787H267.683Z" fill="#1D1917"/>
<path d="M326.783 59.9787H317.853V18.8723H326.783V24.9149C329.844 21 334.776 17.9362 340.134 17.9362V26.7872C339.368 26.617 338.433 26.5319 337.327 26.5319C333.586 26.5319 328.568 29.0851 326.783 31.9787V59.9787Z" fill="#1D1917"/>
<path d="M353.308 12.0638C350.332 12.0638 347.781 9.59575 347.781 6.53191C347.781 3.46808 350.332 1 353.308 1C356.37 1 358.836 3.46808 358.836 6.53191C358.836 9.59575 356.37 12.0638 353.308 12.0638ZM357.815 59.9787H348.886V18.8723H357.815V59.9787Z" fill="#1D1917"/>
<path d="M391.509 59.9787H381.899L365.147 18.8723H374.671L386.662 49.6809L398.652 18.8723H408.262L391.509 59.9787Z" fill="#1D1917"/>
<path d="M411.317 39.383C411.317 27.4681 419.991 17.8511 432.152 17.8511C444.483 17.8511 452.391 27.2979 452.391 40.234V42.3617H420.672C421.352 48.5745 426.029 53.6809 433.768 53.6809C437.765 53.6809 442.527 52.0638 445.418 49.1702L449.5 55.0426C445.418 58.9574 439.38 61 432.832 61C420.502 61 411.317 52.4043 411.317 39.383ZM432.152 25.1702C424.498 25.1702 421.012 31.0426 420.587 36.0638H443.717C443.547 31.2128 440.231 25.1702 432.152 25.1702Z" fill="#1D1917"/>
<path d="M497.857 59.9787H488.928V34.2766C488.928 27.8936 485.696 25.766 480.679 25.766C476.087 25.766 472.175 28.4894 470.134 31.2979V59.9787H461.205V18.8723H470.134V24.4894C472.855 21.2553 478.128 17.8511 484.591 17.8511C493.435 17.8511 497.857 22.617 497.857 31.0426V59.9787Z" fill="#1D1917"/>
<path d="M508.094 54.9574C508.094 51.7234 510.816 49 514.047 49C517.279 49 520 51.7234 520 54.9574C520 58.1915 517.279 60.9149 514.047 60.9149C510.816 60.9149 508.094 58.1915 508.094 54.9574Z" fill="#1D1917"/>
<path d="M44.8805 59.9787H33.4001L20.8143 38.7872H10.9497V59.9787H1V3.21276H25.9166C37.1419 3.21276 44.4553 10.5319 44.4553 21C44.4553 31.1277 37.8222 36.5745 31.019 37.6808L44.8805 59.9787ZM34.2505 21C34.2505 15.5532 30.1686 11.9787 24.556 11.9787H10.9497V30.0213H24.556C30.1686 30.0213 34.2505 26.4468 34.2505 21Z" stroke="#1D1917" stroke-width="0.8" mask="url(#path-1-outside-1_240_6565)"/>
<path d="M49.0182 39.383C49.0182 27.4681 57.6923 17.8511 69.853 17.8511C82.1837 17.8511 90.0924 27.2979 90.0924 40.234V42.3617H58.3726C59.0529 48.5745 63.7301 53.6809 71.4687 53.6809C75.4656 53.6809 80.2278 52.0638 83.1192 49.1702L87.2011 55.0426C83.1192 58.9574 77.0814 61 70.5333 61C58.2025 61 49.0182 52.4043 49.0182 39.383ZM69.853 25.1702C62.1994 25.1702 58.7128 31.0426 58.2876 36.0638H81.4184C81.2483 31.2128 77.9317 25.1702 69.853 25.1702Z" stroke="#1D1917" stroke-width="0.8" mask="url(#path-1-outside-1_240_6565)"/>
<path d="M97.0351 54.617L101.117 48.1489C104.008 51.1277 109.706 53.9362 115.064 53.9362C120.421 53.9362 123.142 51.9787 123.142 48.9149C123.142 45.3404 118.805 44.0638 113.788 42.9574C106.73 41.4255 98.3107 39.5532 98.3107 30.3617C98.3107 23.6383 104.093 17.8511 114.468 17.8511C121.442 17.8511 126.714 20.3191 130.456 23.6383L126.714 29.9362C124.248 27.1277 119.656 25 114.553 25C109.876 25 106.9 26.7021 106.9 29.5957C106.9 32.7447 110.982 33.8511 115.829 34.9574C122.972 36.4894 131.731 38.5319 131.731 48.234C131.731 55.4681 125.694 61 114.638 61C107.665 61 101.287 58.7872 97.0351 54.617Z" stroke="#1D1917" stroke-width="0.8" mask="url(#path-1-outside-1_240_6565)"/>
<path d="M177.37 59.9787H168.441V54.5319C165.465 57.8511 160.363 61 153.899 61C145.055 61 140.718 56.4043 140.718 47.9787V18.8723H149.647V44.7447C149.647 51.1277 152.879 53.0851 157.896 53.0851C162.403 53.0851 166.315 50.5319 168.441 47.7234V18.8723H177.37V59.9787Z" stroke="#1D1917" stroke-width="0.8" mask="url(#path-1-outside-1_240_6565)"/>
<path d="M197.898 59.9787H188.968V3.21276H197.898V59.9787Z" stroke="#1D1917" stroke-width="0.8" mask="url(#path-1-outside-1_240_6565)"/>
<path d="M225.213 61C218.325 61 214.668 57.2553 214.668 50.4468V26.7021H207.865V18.8723H214.668V7.6383H223.598V18.8723H231.931V26.7021H223.598V48.234C223.598 51.0425 224.958 53.0851 227.509 53.0851C229.21 53.0851 230.826 52.4043 231.506 51.6383L233.632 58.3617C232.016 59.8936 229.38 61 225.213 61Z" stroke="#1D1917" stroke-width="0.8" mask="url(#path-1-outside-1_240_6565)"/>
<path d="M278.823 59.9787H257.734V3.21276H278.823C296.512 3.21276 308.502 14.9574 308.502 31.6383C308.502 48.3191 296.512 59.9787 278.823 59.9787ZM267.683 11.9787V51.2128H278.823C291.154 51.2128 298.298 42.3617 298.298 31.6383C298.298 20.6596 291.494 11.9787 278.823 11.9787H267.683Z" stroke="#1D1917" stroke-width="0.8" mask="url(#path-1-outside-1_240_6565)"/>
<path d="M326.783 59.9787H317.853V18.8723H326.783V24.9149C329.844 21 334.776 17.9362 340.134 17.9362V26.7872C339.368 26.617 338.433 26.5319 337.327 26.5319C333.586 26.5319 328.568 29.0851 326.783 31.9787V59.9787Z" stroke="#1D1917" stroke-width="0.8" mask="url(#path-1-outside-1_240_6565)"/>
<path d="M353.308 12.0638C350.332 12.0638 347.781 9.59575 347.781 6.53191C347.781 3.46808 350.332 1 353.308 1C356.37 1 358.836 3.46808 358.836 6.53191C358.836 9.59575 356.37 12.0638 353.308 12.0638ZM357.815 59.9787H348.886V18.8723H357.815V59.9787Z" stroke="#1D1917" stroke-width="0.8" mask="url(#path-1-outside-1_240_6565)"/>
<path d="M391.509 59.9787H381.899L365.147 18.8723H374.671L386.662 49.6809L398.652 18.8723H408.262L391.509 59.9787Z" stroke="#1D1917" stroke-width="0.8" mask="url(#path-1-outside-1_240_6565)"/>
<path d="M411.317 39.383C411.317 27.4681 419.991 17.8511 432.152 17.8511C444.483 17.8511 452.391 27.2979 452.391 40.234V42.3617H420.672C421.352 48.5745 426.029 53.6809 433.768 53.6809C437.765 53.6809 442.527 52.0638 445.418 49.1702L449.5 55.0426C445.418 58.9574 439.38 61 432.832 61C420.502 61 411.317 52.4043 411.317 39.383ZM432.152 25.1702C424.498 25.1702 421.012 31.0426 420.587 36.0638H443.717C443.547 31.2128 440.231 25.1702 432.152 25.1702Z" stroke="#1D1917" stroke-width="0.8" mask="url(#path-1-outside-1_240_6565)"/>
<path d="M497.857 59.9787H488.928V34.2766C488.928 27.8936 485.696 25.766 480.679 25.766C476.087 25.766 472.175 28.4894 470.134 31.2979V59.9787H461.205V18.8723H470.134V24.4894C472.855 21.2553 478.128 17.8511 484.591 17.8511C493.435 17.8511 497.857 22.617 497.857 31.0426V59.9787Z" stroke="#1D1917" stroke-width="0.8" mask="url(#path-1-outside-1_240_6565)"/>
<path d="M508.094 54.9574C508.094 51.7234 510.816 49 514.047 49C517.279 49 520 51.7234 520 54.9574C520 58.1915 517.279 60.9149 514.047 60.9149C510.816 60.9149 508.094 58.1915 508.094 54.9574Z" stroke="#1D1917" stroke-width="0.8" mask="url(#path-1-outside-1_240_6565)"/>
</svg>
