<svg width="204" height="28" viewBox="0 0 204 28" fill="none" xmlns="http://www.w3.org/2000/svg">
<g clip-path="url(#clip0_631_1338)">
<path d="M1.16699 1.48169V6.17169H8.68033V26.5184H14.0003V6.17169H21.5137V1.48169H1.16699Z" fill="#1D1917"/>
<path d="M159.857 1.48169V6.17169H167.371V26.5184H172.691V6.17169H180.204V1.48169H159.857Z" fill="#1D1917"/>
<path d="M148.598 1.48169H143.267V26.5184H162.05V21.8284H148.598V1.48169Z" fill="#1D1917"/>
<path d="M41.3937 11.655H30.1237V1.48169H24.8037V26.5184H30.1237V16.345H41.3937V26.5184H46.7137V1.48169H41.3937V11.655Z" fill="#1D1917"/>
<path d="M50.6219 1.48169V26.5184H69.4053V21.8284H55.942V16.345H68.6236V11.655H55.942V6.17169H69.4053V1.48169H50.6219Z" fill="#1D1917"/>
<path d="M102.585 1.48169L96.6354 17.7567L90.6854 1.48169H82.5537V26.5184H87.8737V7.32669L95.072 26.5184H98.1987L105.397 7.32669V26.5184H110.717V1.48169H102.585Z" fill="#1D1917"/>
<path d="M126.992 1.16669C119.898 1.16669 114.158 6.90669 114.158 14C114.158 21.0934 119.898 26.8334 126.992 26.8334C134.085 26.8334 139.825 21.0934 139.825 14C139.825 6.90669 134.085 1.16669 126.992 1.16669ZM126.992 21.5134C122.838 21.5134 119.478 18.1534 119.478 14C119.478 9.84669 122.838 6.48669 126.992 6.48669C131.145 6.48669 134.505 9.84669 134.505 14C134.505 18.1534 131.145 21.5134 126.992 21.5134Z" fill="#1D1917"/>
<path d="M192.943 11.1884C190.073 10.5234 187.985 9.99835 187.985 8.31835C187.985 6.82502 189.257 5.78669 191.637 5.78669C194.017 5.78669 196.735 6.63835 198.753 8.50502L201.693 4.63169C199.232 2.35669 195.953 1.16669 192.01 1.16669C186.165 1.16669 182.583 4.51502 182.583 8.65669C182.583 14.21 187.798 15.33 191.858 16.2517C194.728 16.9167 196.887 17.5584 196.887 19.4134C196.887 20.825 195.475 22.2017 192.57 22.2017C189.14 22.2017 186.422 20.6734 184.672 18.8534L181.767 22.8784C184.112 25.2234 187.542 26.8217 192.313 26.8217C199.022 26.8217 202.265 23.3917 202.265 18.8534C202.265 13.335 197.05 12.11 192.955 11.1767L192.943 11.1884Z" fill="#1D1917"/>
</g>
<defs>
<clipPath id="clip0_631_1338">
<rect width="204" height="28" fill="white"/>
</clipPath>
</defs>
</svg>
